# xmcd
#
# Track frame offsets: 
#        150
#        11751
#        22223
#        36258
#        47352
#        59120
#        69817
#        81450
#        93735
#        106486
#        116671
#        126477
#        141827
#        151538
#        162473
#
# Disc length: 2294 seconds
#
# Revision: 3
# Processed by: cddbd v1.5.2PL0 Copyright (c) Steve Scherf et al.
# Submitted via: ExactAudioCopy v0.99pb4
#
DISCID=d408f40f
DTITLE=Various Artist - Country Juke Box Hits [CD 2]
DYEAR=2001
DGENRE=Country
TTITLE0=Johnny Cash - I Walk The Line
TTITLE1=Waylon Jennings - White Lightning
TTITLE2=Frankie Laine - Don't Fence Me In
TTITLE3=Anne Murray - The Last Thing On My Mind
TTITLE4=Willie Nelson - Night Life
TTITLE5=Lynn Anderson - Heaven's Just A Sin Away
TTITLE6=Patsy Cline - Today, Tomorrow And Forever
TTITLE7=Glen Campbell - By The Time I Get To Phoenix
TTITLE8=Dottie West - I Fall To Pieces
TTITLE9=Roger Miller - King Of The Road
TTITLE10=Cowboy Copas - 1000 Miles Of Ocean
TTITLE11=Bobby Bare - Leaving On A Jet Plane
TTITLE12=Jimmy Dean - Freight Train Blues
TTITLE13=Buck Owens - Above And Beyond
TTITLE14=Willie Nelson - The Healing Hands Of Time
EXTD=YEAR: 2001  ID3G:   2
EXTT0=
EXTT1=
EXTT2=
EXTT3=
EXTT4=
EXTT5=
EXTT6=
EXTT7=
EXTT8=
EXTT9=
EXTT10=
EXTT11=
EXTT12=
EXTT13=
EXTT14=
PLAYORDER=
